<?xml version="1.0" standalone="no"?> <!DOCTYPE svg PUBLIC "-//W3C//DTD SVG 20010904//EN" "http://www.w3.org/TR/2001/REC-SVG-20010904/DTD/svg10.dtd"> <svg version="1.0" xmlns="http://www.w3.org/2000/svg" width="410.000000pt" height="410.000000pt" viewBox="0 0 410.000000 410.000000" preserveAspectRatio="xMidYMid meet"> <g transform="translate(0.000000,410.000000) scale(0.100000,-0.100000)" fill="#0c1155" stroke="none"> <path d="M1812 3930 l3 -81 147 -82 c130 -72 146 -84 131 -95 -10 -7 -75 -44 -146 -84 -71 -39 -131 -76 -133 -83 -3 -7 -4 -44 -2 -82 l3 -71 75 44 c41 25 146 84 232 132 l158 87 0 61 c0 46 -4 65 -17 76 -10 8 -97 59 -193 113 -96 54 -194 109 -218 123 l-43 24 3 -82z"/> <path d="M1593 3745 c-662 -175 -1173 -737 -1277 -1405 -24 -150 -24 -150 -17 -150 20 1 195 50 201 57 4 4 15 49 24 98 49 255 182 531 347 718 l42 49 129 -129 128 -128 26 26 26 26 -132 129 -131 128 38 33 c190 165 413 289 621 344 l82 22 0 104 c0 56 -3 103 -7 103 -5 -1 -50 -12 -100 -25z"/> <path d="M2400 3661 c0 -73 4 -103 13 -105 249 -69 455 -176 640 -332 l68 -58 -127 -127 -128 -128 19 -23 c11 -13 21 -25 23 -28 1 -2 60 53 130 123 l128 127 35 -37 c109 -115 237 -332 298 -507 18 -49 42 -141 55 -205 l23 -116 74 -21 c41 -12 89 -25 108 -29 l33 -7 -7 53 c-79 620 -446 1133 -995 1393 -116 54 -275 110 -350 122 l-40 7 0 -102z"/> <path d="M2011 3319 c-17 -30 -93 -162 -170 -294 -76 -132 -135 -241 -131 -243 6 -2 168 46 217 65 10 4 13 -59 13 -296 l0 -300 -27 -15 c-45 -23 -101 -88 -118 -135 -40 -115 -3 -236 93 -301 l51 -35 1 -320 0 -321 44 -37 c25 -20 51 -37 58 -37 7 0 35 20 62 45 l49 45 -6 308 -7 309 53 39 c109 82 141 209 83 328 -25 50 -79 105 -117 118 -9 3 -21 592 -12 601 2 3 54 -11 115 -30 60 -19 112 -33 114 -31 2 3 -32 65 -75 139 -43 74 -119 205 -169 293 l-91 158 -30 -53z m100 -1238 c77 -78 -7 -208 -107 -166 -70 29 -87 111 -33 164 42 43 98 43 140 2z"/> <path d="M1362 2264 l-263 -259 266 -258 265 -259 0 105 0 104 -159 156 -159 157 159 154 160 154 -3 102 -3 102 -263 -258z"/> <path d="M2450 2422 l0 -98 160 -159 160 -160 -161 -155 -160 -155 3 -101 3 -101 265 258 265 259 -45 42 c-25 22 -142 137 -261 255 -118 117 -218 213 -222 213 -4 0 -7 -44 -7 -98z"/> <path d="M660 2150 c-179 -47 -374 -99 -433 -115 -59 -15 -104 -31 -100 -35 4 -3 91 -28 193 -55 102 -26 292 -76 424 -111 131 -35 242 -64 246 -64 6 0 -27 160 -34 168 -2 1 -56 15 -120 31 -64 16 -119 31 -122 33 -2 3 35 15 83 27 180 45 159 31 178 116 9 42 15 79 13 83 -2 5 -149 -31 -328 -78z"/> <path d="M3093 2217 c3 -12 11 -49 18 -82 7 -33 14 -62 15 -64 2 -2 58 -18 126 -36 106 -28 119 -34 93 -40 -120 -30 -210 -56 -215 -62 -11 -11 -43 -153 -37 -159 3 -3 148 33 323 80 176 46 366 97 424 111 58 15 109 31 115 36 5 5 6 9 2 9 -8 0 -587 152 -760 199 l-109 30 5 -22z"/> <path d="M316 1736 c30 -172 72 -303 154 -472 196 -407 583 -747 1008 -887 117 -39 308 -84 317 -76 3 3 -11 53 -31 111 l-36 105 -57 13 c-140 31 -338 117 -462 200 -75 51 -229 172 -229 181 0 4 39 43 86 87 47 44 101 99 121 122 l35 41 -23 25 -23 25 -126 -125 -125 -125 -60 70 c-153 180 -277 424 -330 649 -10 41 -19 77 -21 78 -3 5 -186 52 -200 52 -8 0 -7 -21 2 -74z"/> <path d="M3663 1785 c-45 -13 -86 -26 -91 -29 -5 -3 -14 -31 -21 -63 -38 -169 -112 -344 -207 -490 -66 -102 -172 -233 -188 -233 -6 0 -64 53 -128 117 l-117 117 -26 -24 -26 -24 123 -123 123 -124 -35 -30 c-127 -109 -316 -230 -440 -280 -30 -12 -104 -37 -164 -54 l-109 -32 -38 -106 c-46 -128 -56 -123 141 -73 512 130 918 459 1155 935 79 159 125 303 159 504 8 45 6 45 -111 12z"/> <path d="M1762 1038 l3 -92 134 -119 c74 -65 140 -116 147 -113 8 3 72 56 144 118 l130 113 0 94 c0 87 -1 93 -17 80 -10 -7 -71 -60 -135 -116 -64 -57 -121 -103 -126 -103 -6 0 -68 52 -138 115 -71 63 -133 115 -137 115 -4 0 -6 -41 -5 -92z"/> <path d="M1780 758 c0 -3 38 -113 85 -244 47 -131 104 -291 126 -354 23 -63 44 -118 48 -123 6 -6 261 696 261 718 0 5 -127 -90 -210 -157 -19 -15 -40 -28 -46 -28 -9 0 -128 86 -251 183 -7 5 -13 7 -13 5z"/> </g> </svg>